<svg width="481" height="111" viewBox="0 0 481 111" fill="none" xmlns="http://www.w3.org/2000/svg">
<path d="M39.017 4.07991C33.8132 3.93673 28.1106 3.81803 21.907 3.72217C19.3298 3.72217 16.7277 4.07991 14.1036 4.79579C11.4771 5.51127 9.11454 6.70603 7.01592 8.37479C4.91526 10.0456 3.22177 12.3115 1.93298 15.1747C0.644598 18.0378 0 21.5699 0 25.7685V88.4716C0 93.3392 0.76291 97.2041 2.29077 100.068C3.81659 102.931 5.79894 105.056 8.23291 106.438C10.6669 107.823 13.2196 108.728 15.893 109.158C18.5644 109.587 21.0947 109.802 23.4817 109.802C28.1575 109.802 32.9541 109.731 37.8714 109.587C42.7862 109.444 47.679 109.252 52.5474 109.015C57.4157 108.778 62.0442 108.514 66.436 108.227V96.3455H26.0589C24.0541 96.3455 22.1685 96.0591 20.4032 95.4868C18.6358 94.9141 17.2038 93.818 16.1076 92.1942C15.0093 90.5723 14.461 88.1387 14.461 84.8934V63.2762L59.9925 62.2744V51.1078L14.461 50.2492V28.3461C14.461 24.4338 15.4634 21.5707 17.4678 19.7567C19.4722 17.9448 22.2395 17.0368 25.7721 17.0368H66.4352V5.15352C62.3298 4.96344 58.0346 4.77295 53.549 4.58082C49.0617 4.39074 44.2182 4.22309 39.017 4.07991Z" fill="#080816"/>
<path d="M127.287 32.7833L107.996 61.5157L87.4828 32.6401H72.8782L99.56 70.1993L72.8782 109.23H87.4828L106.851 80.4623L127.287 109.23H141.891L115.234 71.7049L141.891 32.6401L127.287 32.7833Z" fill="#080816"/>
<path d="M242.689 88.7579L218.778 3.72217H204.746L180.692 88.7579L159.788 3.72217H144.897L171.385 109.23H186.562L211.762 24.1935L236.819 109.23H251.996L278.484 3.72217H263.736L242.689 88.7579Z" fill="#080816"/>
<path d="M340.053 39.3682C337.283 36.5051 333.753 34.5011 329.457 33.3556C325.162 32.2102 320.15 31.6379 314.423 31.6379C308.696 31.6379 303.684 32.1882 299.389 33.2842C295.094 34.3827 291.561 36.3623 288.794 39.2255C286.024 42.0886 283.973 46.0747 282.637 51.1792C281.299 56.2863 280.632 62.8467 280.632 70.8638C280.632 78.5941 281.299 84.9893 282.637 90.0466C283.973 95.1063 286.024 99.0903 288.794 102C291.561 104.913 295.069 106.989 299.317 108.228C303.563 109.467 308.599 110.089 314.423 110.089C320.244 110.089 325.305 109.492 329.6 108.3C333.895 107.107 337.403 105.079 340.124 102.215C342.844 99.3522 344.871 95.3685 346.209 90.2615C347.545 85.1569 348.214 78.6903 348.214 70.8638C348.214 62.943 347.545 56.4291 346.209 51.3224C344.871 46.2174 342.82 42.2318 340.053 39.3682ZM332.607 85.4653C331.748 89.1875 330.506 91.9792 328.884 93.8401C327.26 95.7014 325.233 96.9178 322.799 97.4905C320.365 98.0628 317.573 98.3491 314.423 98.3491C311.177 98.3491 308.338 98.0628 305.904 97.4905C303.47 96.9178 301.465 95.701 299.89 93.8401C298.315 91.9788 297.12 89.1875 296.31 85.4653C295.499 81.7431 295.094 76.829 295.094 70.7202C295.094 64.6134 295.499 59.7217 296.31 56.0464C297.12 52.3736 298.315 49.6292 299.89 47.8148C301.465 46.0029 303.47 44.7857 305.904 44.164C308.338 43.5444 311.177 43.2336 314.423 43.2336C317.573 43.2336 320.365 43.5448 322.799 44.164C325.233 44.7857 327.26 46.0029 328.884 47.8148C330.506 49.6288 331.748 52.3736 332.607 56.0464C333.466 59.7217 333.896 64.6134 333.896 70.7202C333.895 76.829 333.466 81.7431 332.607 85.4653Z" fill="#080816"/>
<path d="M401.189 31.6379C395.842 31.6379 391.166 32.9755 387.157 35.6465C383.148 38.3195 379.52 41.6121 376.275 45.5244L372.983 32.6402H361.958V109.23H376.275V56.9769C378.66 54.6865 381.023 52.7534 383.363 51.1789C385.701 49.6043 388.16 48.4365 390.737 47.6712C393.314 46.9084 396.224 46.5258 399.471 46.5258C400.996 46.5258 402.478 46.5976 403.909 46.7404C405.341 46.884 406.723 47.0516 408.061 47.2417V32.4966C407.01 32.2102 405.914 31.9957 404.769 31.8525C403.623 31.7093 402.428 31.6379 401.189 31.6379Z" fill="#080816"/>
<path d="M466.477 0V35.7896C463.517 34.7405 460.056 33.7851 456.096 32.9261C452.135 32.0674 448.15 31.6379 444.141 31.6379C436.982 31.6379 431.301 32.9979 427.102 35.7178C422.901 38.4378 419.871 42.7326 418.01 48.6021C416.149 54.4719 415.218 62.1304 415.218 71.5788C415.218 80.5508 416.22 87.8764 418.225 93.5537C420.229 99.2331 423.259 103.409 427.317 106.08C431.373 108.753 436.503 110.088 442.709 110.088C445.573 110.088 448.53 109.659 451.586 108.8C454.64 107.942 457.504 106.868 460.177 105.579C462.848 104.291 464.949 102.98 466.477 101.643L469.054 109.23H480.795V0H466.477ZM466.477 92.6233C463.994 93.9608 461.154 95.2494 457.958 96.4886C454.758 97.7303 451.204 98.3499 447.291 98.3499C443.089 98.3499 439.678 97.4913 437.053 95.7732C434.427 94.0555 432.543 91.1699 431.398 87.1124C430.252 83.057 429.68 77.6416 429.68 70.8642C429.68 63.5157 430.299 57.7894 431.541 53.685C432.781 49.5827 434.785 46.7196 437.555 45.0953C440.322 43.4734 443.949 42.6617 448.437 42.6617C451.873 42.6617 454.998 43.0194 457.815 43.7353C460.629 44.4512 463.517 45.2389 466.477 46.0975V92.6233Z" fill="#080816"/>
</svg>
