<svg width="237" height="198" viewBox="0 0 237 198" fill="none" xmlns="http://www.w3.org/2000/svg">
<path d="M212.527 36.7272C211.847 33.7755 208.261 19.6215 195.803 11.9899C193.443 10.5419 191.295 9.65624 189.737 9.1095C190.91 10.8193 196.202 18.8951 193.983 28.2711C191.87 37.1926 184.247 41.8409 179.945 44.465C177.158 46.1642 176.74 45.9159 168.073 49.322C159.039 52.8739 153.36 55.1093 146.93 58.6794C146.37 58.9883 145.823 59.2923 145.288 59.5937C139.441 62.8678 134.897 65.6824 130.682 70.8539C130.572 70.9858 130.463 71.1207 130.356 71.2556C130.346 71.2661 130.338 71.2792 130.331 71.2902C127.159 75.291 125.295 79.2548 124.188 82.1461C124.152 82.2414 124.117 82.3337 124.084 82.4235C124.079 82.434 124.076 82.4471 124.071 82.4576C124.068 82.4682 124.066 82.4762 124.061 82.4867C123.401 84.3154 122.913 86.0939 122.554 87.772C122.162 89.2124 121.785 90.6735 121.419 92.156C121.029 93.7229 120.655 95.3167 120.301 96.9338C120.296 96.9498 120.291 96.9629 120.289 96.9789C119.843 98.99 119.421 101.038 119.026 103.12C118.736 104.659 118.465 106.183 118.214 107.693C117.964 106.184 117.693 104.659 117.403 103.121C117.008 101.038 116.586 98.9905 116.14 96.9793C116.138 96.9637 116.133 96.9502 116.128 96.9342C115.774 95.3167 115.399 93.7233 115.01 92.1565C114.644 90.6739 114.267 89.2124 113.875 87.7724C113.516 86.0943 113.027 84.3158 112.368 82.4871C112.363 82.4766 112.36 82.4686 112.358 82.4581C112.352 82.4475 112.35 82.4345 112.345 82.4239C112.312 82.3341 112.276 82.2414 112.24 82.1465C111.133 79.2556 109.27 75.2914 106.098 71.2906C106.09 71.2801 106.083 71.2666 106.073 71.256C105.966 71.1211 105.856 70.9867 105.747 70.8543C101.532 65.6828 96.9874 62.8682 91.1406 59.5941C90.606 59.2927 90.0587 58.9888 89.4989 58.6798C83.0689 55.1097 77.3899 52.8739 68.3557 49.3224C59.6883 45.9159 59.2709 46.1646 56.4837 44.4654C52.1816 41.8413 44.5581 37.193 42.4454 28.2715C40.2257 18.8956 45.5177 10.8197 46.6914 9.10992C45.1336 9.65708 42.9851 10.5423 40.6254 11.9903C28.1677 19.6223 24.5811 33.776 23.9015 36.7276C21.1994 48.4641 23.9217 59.5802 27.4548 65.067C30.5232 69.8321 34.5382 72.1952 34.5382 72.1952C36.2756 73.2179 37.8621 73.7735 38.968 74.0863C38.9705 74.0863 38.9705 74.0888 38.9731 74.0888C50.7995 77.4105 62.0252 82.2279 72.4541 88.4671C85.3498 96.1834 101.399 105.784 111.96 125.591C114.534 130.419 116.616 135.567 118.181 140.936V141.073L118.214 141.047L118.214 141.046L118.214 141.047L118.247 141.073V140.935C119.812 135.566 121.894 130.419 124.468 125.59C135.029 105.784 151.078 96.183 163.974 88.4667C174.403 82.2275 185.629 77.4101 197.455 74.0884C197.458 74.0884 197.458 74.0858 197.46 74.0858C198.566 73.773 200.152 73.2179 201.89 72.1948C201.89 72.1948 205.905 69.8312 208.973 65.0665C212.506 59.5798 215.229 48.4633 212.527 36.7272Z" fill="#7575F2"/>
<path d="M131.83 55.799C130.738 59.6017 128.827 62.3712 127.404 64.0861L127.401 64.0886C126.152 65.4177 124.927 66.8817 123.756 68.4937C121.335 71.8285 119.554 75.227 118.248 78.512C116.942 75.2274 115.157 71.8264 112.737 68.4937C111.566 66.8817 110.344 65.4177 109.094 64.0886L109.091 64.0861C107.668 62.3708 105.754 59.6017 104.664 55.799C103.402 51.3989 103.738 47.3239 105.25 40.8208C107.571 30.8159 110.094 26.1832 113.439 16.4637C114.742 12.6741 116.534 7.05618 118.247 0C119.96 7.05575 121.753 12.6741 123.056 16.4637C126.398 26.1832 128.921 30.8159 131.245 40.8208C132.754 47.3243 133.09 51.3989 131.83 55.799Z" fill="#9494FF"/>
<path d="M114.811 164.861V164.864C114.808 164.866 114.808 164.866 114.811 164.869C114.808 164.872 114.808 164.872 114.811 164.874C114.808 164.877 114.808 164.882 114.811 164.885C114.808 164.89 114.808 164.893 114.811 164.898C114.801 165.577 114.803 166.259 114.811 166.943V197.486C114.42 192.436 111.225 158.319 82.5592 137.269C62.8297 122.781 42.1524 122.647 34.9733 122.944C34.7861 122.953 34.518 122.964 34.1954 122.969C25.1612 123.134 15.3243 118.697 8.73582 111.057C0.555808 101.572 0.181449 90.394 0.0258761 85.7545C-0.396995 73.1096 4.47215 63.7956 6.65692 60.116C8.03937 65.5281 10.3506 68.6728 11.9847 70.4408C16.0984 74.8885 21.8588 77.0261 27.9628 78.6777C28.1601 78.7308 28.4919 78.8202 28.9021 78.9289C32.3703 79.847 39.1379 81.5433 40.087 81.8279C40.4483 81.9362 40.8075 82.0471 41.1637 82.1609C41.2046 82.1739 41.2476 82.1874 41.2885 82.2005C41.426 82.2456 41.5634 82.2903 41.6983 82.3329C41.7873 82.362 41.8762 82.391 41.9656 82.4201C42.1262 82.4732 42.2839 82.5259 42.4416 82.5761C44.8064 83.3585 46.815 84.0877 46.815 84.0877C47.39 84.2993 47.8917 84.484 48.2939 84.6349C48.4288 84.6851 48.5511 84.7327 48.6632 84.7748C49.0528 84.9228 49.2973 85.0151 49.3505 85.0366C49.3555 85.0366 49.3581 85.0392 49.3631 85.0421C49.5284 85.1058 49.684 85.1665 49.8265 85.2217C49.8825 85.2428 49.9386 85.2664 49.9943 85.2879C50.0938 85.3275 50.1903 85.3646 50.2869 85.4042C50.3278 85.4202 50.3682 85.4388 50.4091 85.4544C51.7456 85.9855 53.072 86.5377 54.3878 87.114C59.4252 89.3178 64.3104 91.831 69.0218 94.6507C81.813 102.304 96.3099 110.977 105.947 129.047C106.446 129.98 106.922 130.928 107.377 131.888C112.125 141.841 114.673 153.139 114.811 164.861Z" fill="#5353E5"/>
<path d="M121.682 164.863V164.865C121.685 164.868 121.685 164.868 121.682 164.87C121.685 164.873 121.685 164.873 121.682 164.876C121.685 164.878 121.685 164.884 121.682 164.886C121.685 164.892 121.685 164.894 121.682 164.899C121.692 165.578 121.69 166.26 121.682 166.945V197.488C122.073 192.437 125.268 158.321 153.934 137.271C173.663 122.783 194.341 122.648 201.519 122.945C201.706 122.954 201.975 122.965 202.297 122.971C211.331 123.135 221.168 118.698 227.757 111.058C235.937 101.573 236.311 90.3952 236.467 85.7557C236.89 73.1108 232.02 63.7968 229.836 60.1172C228.453 65.5294 226.142 68.6741 224.508 70.442C220.394 74.8897 214.634 77.0273 208.53 78.6789C208.332 78.732 208.001 78.8214 207.59 78.9301C204.122 79.8483 197.355 81.5445 196.406 81.8291C196.044 81.9374 195.685 82.0483 195.329 82.1621C195.288 82.1752 195.245 82.1887 195.204 82.2017C195.067 82.2468 194.929 82.2915 194.794 82.3341C194.705 82.3632 194.616 82.3923 194.527 82.4213C194.366 82.4745 194.209 82.5271 194.051 82.5773C191.686 83.3597 189.678 84.089 189.678 84.089C189.103 84.3006 188.601 84.4852 188.199 84.6361C188.064 84.6863 187.941 84.7339 187.83 84.7761C187.44 84.924 187.196 85.0164 187.142 85.0379C187.137 85.0379 187.135 85.0404 187.13 85.0433C186.965 85.1066 186.809 85.1677 186.666 85.2229C186.61 85.244 186.554 85.2676 186.499 85.2891C186.399 85.3287 186.303 85.3658 186.206 85.4054C186.165 85.4215 186.125 85.4396 186.084 85.4556C184.747 85.9867 183.421 86.539 182.105 87.1152C177.068 89.319 172.183 91.8323 167.471 94.6519C154.68 102.305 140.183 110.978 130.546 129.048C130.047 129.981 129.571 130.929 129.115 131.889C124.368 141.843 121.82 153.14 121.682 164.863Z" fill="#5353E5"/>
<path d="M191.927 159.345C186.663 164.535 179.917 166.863 176.674 167.981C170.764 170.021 169.855 169.046 160.383 170.951C155.75 171.881 151.83 172.687 148.353 173.781C144.27 175.066 140.798 176.746 137.507 179.497C133.531 182.816 131.148 186.585 129.796 189.124C131.815 178.726 138.215 157.556 157.904 143.095C174.615 130.823 192.217 129.668 201.221 130.072C201.46 133.6 202.157 149.255 191.927 159.345Z" fill="#3B38A5"/>
<path d="M44.5657 159.345C49.8299 164.535 56.5752 166.863 59.8182 167.981C65.7291 170.021 66.6377 169.046 76.1095 170.951C80.7425 171.881 84.6622 172.687 88.1397 173.781C92.2225 175.066 95.6948 176.746 98.9859 179.497C102.962 182.816 105.345 186.585 106.696 189.124C104.678 178.726 98.278 157.556 78.589 143.095C61.8777 130.823 44.2757 129.668 35.2719 130.072C35.0328 133.6 34.3355 149.255 44.5657 159.345Z" fill="#3B38A5"/>
</svg>
