<svg width="291" height="583" viewBox="0 0 291 583" fill="none" xmlns="http://www.w3.org/2000/svg">
<path d="M39.5 501.552L25 582.052H267L260 539.052L255.5 514.052L260 509.552V497.052L248.5 459.052L241.5 424.052V393.052H255.5H267L274.5 382.052L285.5 352.052L290 323.052L285.5 291.052L281.5 276.052L285.5 250.052L281.5 226.552L274.5 208.052L255.5 194.552H232.5L212.5 185.052L196.5 178.052L193 168.552H202.5H212.5L202.5 149.427L212.5 162.552H227L212.5 149.427L216 133.052L221 101.052L212.5 66.5522L196.5 31.0522L179 11.5522L163 4.55219L153 11.5522L140 0.552185L125.5 4.55219L112 11.5522L100 27.0522L86.5 52.0522L78.75 81.0522L73.25 101.052L78.75 97.5522L79.5 128.552L73.25 149.427L67 157.802H78.75L86.5 153.052L79.5 168.552L86.5 162.552V168.552H95H100L86.5 181.552L71 189.552L54.5 194.552H39.5L25 204.052L13 222.552L7.5 250.052V271.552L0.5 299.052V323.052V352.052L7.5 382.052L18.5 399.552H43.5L54.5 405.052L29 497.052L39.5 501.552Z" fill="black"/>
<path d="M71 162.552L78.75 157.802M78.75 157.802L86.5 153.052L79.5 168.552L86.5 162.552V168.552H95H100L86.5 181.552L71 189.552L54.5 194.552H39.5L25 204.052L13 222.552L7.5 250.052V271.552L0.5 299.052V323.052V352.052L7.5 382.052L18.5 399.552H43.5L54.5 405.052L29 497.052L39.5 501.552L25 582.052H267L260 539.052L255.5 514.052L260 509.552V497.052L248.5 459.052L241.5 424.052V393.052H255.5H267L274.5 382.052L285.5 352.052L290 323.052L285.5 291.052L281.5 276.052L285.5 250.052L281.5 226.552L274.5 208.052L255.5 194.552H232.5L212.5 185.052L196.5 178.052L193 168.552H202.5H212.5L202.5 149.427L212.5 162.552H227L212.5 149.427L216 133.052L221 101.052L212.5 66.5522L196.5 31.0522L179 11.5522L163 4.55219L153 11.5522L140 0.552185L125.5 4.55219L112 11.5522L100 27.0522L86.5 52.0522L78.75 81.0522L73.25 101.052M78.75 157.802H67L73.25 149.427M79.5 141.052L73.25 149.427M73.25 149.427L79.5 128.552L78.75 97.5522L73.25 101.052M73.25 101.052V119.552" stroke="black"/>
</svg>
