<svg width="292" height="514" viewBox="0 0 292 514" fill="none" xmlns="http://www.w3.org/2000/svg">
<path d="M46 492.5L58.5 513.5H274L269.5 505.5L264.5 487L257.5 466L253.5 446L251 429V411.5L244.5 385L241 368.5L244.5 350H269.5L281 341.5L286 316.5V296L281 288.5L291.5 280V270L286 241L274 197.5L251 189.5L222.5 179L204.125 166.5L196 155L178.5 143.5L185 123L190 117L196 111.5L202 91L196 84.5L202 58V51.5H207V41.5L202 35L196 30.5L202 26.5L190 16.5L183 11H178.5L173 6.5L168.5 11L159 0.5H150H133.5V6.5H129H117.5L114 16.5H105.5V21.5H97L101 30.5H93.5L97 35L88 41.5L97 58H93.5L97 62.5V68.5L101 72V78H105.5V84.5H101V91L105.5 99.5V111.5L117.5 117V126L123 136V143.5L114 150L105.5 155V161L101 166.5L93.5 172.5L72.5 179L46 185.5L32.5 189.5L21.5 202L10 241L0.5 280V300.5V316.5L5 330.5L15 350L21.5 359H32.5L58.5 346L64 443.5L55 459.5V466L46 492.5Z" fill="black"/>
<path d="M139.5 6.5H133.5M133.5 6.5H129H117.5L114 16.5H105.5V21.5H97L101 30.5H93.5L97 35L88 41.5L97 58H93.5L97 62.5V68.5L101 72V78H105.5V84.5H101V91L105.5 99.5V111.5L117.5 117V126L123 136V143.5L114 150L105.5 155V161L101 166.5L93.5 172.5L72.5 179L46 185.5L32.5 189.5L21.5 202L10 241L0.5 280V300.5V316.5L5 330.5L15 350L21.5 359H32.5L58.5 346L64 443.5L55 459.5V466L46 492.5L58.5 513.5H274L269.5 505.5L264.5 487L257.5 466L253.5 446L251 429V411.5L244.5 385L241 368.5L244.5 350H269.5L281 341.5L286 316.5V296L281 288.5L291.5 280V270L286 241L274 197.5L251 189.5L222.5 179L204.125 166.5L196 155L178.5 143.5L185 123L190 117L196 111.5L202 91L196 84.5L202 58V51.5H207V41.5L202 35L196 30.5L202 26.5L190 16.5L183 11H178.5L173 6.5L168.5 11L159 0.5H150H133.5V6.5Z" stroke="black"/>
</svg>
